<?xml version="1.0" standalone="no"?>
<!DOCTYPE svg PUBLIC "-//W3C//DTD SVG 20010904//EN"
 "http://www.w3.org/TR/2001/REC-SVG-20010904/DTD/svg10.dtd">
<svg version="1.0" xmlns="http://www.w3.org/2000/svg"
 width="183.000000pt" height="183.000000pt" viewBox="0 0 183.000000 183.000000"
 preserveAspectRatio="xMidYMid meet">
<metadata>
Created by potrace 1.11, written by Peter Selinger 2001-2013
</metadata>
<g transform="translate(0.000000,183.000000) scale(0.100000,-0.100000)"
fill="#000000" stroke="none">
<path d="M822 1619 c-86 -14 -195 -70 -256 -132 -52 -52 -111 -148 -99 -161 4
-3 26 -6 49 -6 24 0 66 -5 94 -11 l51 -11 58 55 c68 65 116 82 205 73 71 -7
132 -40 174 -93 34 -44 62 -119 62 -168 0 -50 -37 -140 -71 -175 -34 -33 -34
-31 30 -132 20 -32 41 -58 46 -58 23 0 117 107 145 165 133 271 -39 607 -335
655 -68 11 -79 11 -153 -1z"/>
<path d="M342 1140 c-80 -29 -132 -62 -189 -122 -100 -107 -143 -241 -123
-382 26 -180 141 -316 319 -380 49 -17 89 -20 304 -24 140 -2 247 0 247 5 0 5
-18 27 -41 48 -22 22 -54 66 -70 98 l-29 57 -168 0 c-189 0 -220 8 -287 75
-53 54 -75 107 -75 185 0 80 23 133 80 188 103 101 277 94 371 -16 19 -22 70
-102 113 -179 157 -274 228 -363 331 -413 241 -117 511 -28 627 206 37 75 42
95 46 171 8 145 -28 250 -116 346 -43 45 -125 107 -143 107 -4 0 -13 -26 -19
-57 -7 -31 -19 -75 -26 -97 l-14 -40 44 -45 c199 -202 -33 -537 -290 -417 -62
29 -101 74 -183 213 -146 249 -166 280 -209 331 -55 65 -127 114 -206 142 -79
27 -219 27 -294 0z"/>
</g>
</svg>
